<svg width="196" height="196" viewBox="0 0 196 196" fill="none" xmlns="http://www.w3.org/2000/svg">
<path d="M157.273 121.842L172.437 130.638L157.273 139.434L142.109 130.638L157.273 121.842Z" fill="#FA693A"/>
<path d="M157.258 139.405L157.242 156.968L142.061 148.201L142.078 130.638L157.258 139.405Z" fill="#AD4929"/>
<path d="M157.13 139.405L172.31 130.638L172.327 148.201L157.146 156.968L157.13 139.405Z" fill="#5A28AD"/>
<path d="M112.298 78.684L127.461 87.4798L112.298 96.2757L97.1338 87.4798L112.298 78.684Z" fill="#FA693A"/>
<path d="M112.283 96.2468L112.266 113.81L97.086 105.043L97.1026 87.4798L112.283 96.2468Z" fill="#AD4929"/>
<path d="M112.154 96.2468L127.335 87.4799L127.352 105.043L112.171 113.81L112.154 96.2468Z" fill="#CF5830"/>
<path d="M97.3057 87.316L112.47 96.1119L97.3057 104.908L82.1418 96.1119L97.3057 87.316Z" fill="#FA693A"/>
<path d="M97.2912 104.879L97.2745 122.442L82.0941 113.675L82.1107 96.1119L97.2912 104.879Z" fill="#AD4929"/>
<path d="M97.1625 104.879L112.343 96.1119L112.36 113.675L97.1791 122.442L97.1625 104.879Z" fill="#CF5830"/>
<path d="M127.29 87.316L142.453 96.1119L127.29 104.908L112.126 96.1119L127.29 87.316Z" fill="#FA693A"/>
<path d="M127.275 104.879L127.258 122.442L112.078 113.675L112.095 96.1119L127.275 104.879Z" fill="#AD4929"/>
<path d="M127.146 104.879L142.327 96.1119L142.343 113.675L127.163 122.442L127.146 104.879Z" fill="#CF5830"/>
<path d="M142.281 95.9465L157.445 104.742L142.281 113.538L127.117 104.742L142.281 95.9465Z" fill="#FA693A"/>
<path d="M142.266 113.509L142.25 131.072L127.069 122.305L127.086 104.742L142.266 113.509Z" fill="#AD4929"/>
<path d="M142.138 113.509L157.318 104.742L157.335 122.305L142.154 131.072L142.138 113.509Z" fill="#CF5830"/>
<path d="M97.7603 1L112.924 9.79585L97.7603 18.5917L82.5964 9.79585L97.7603 1Z" fill="#FA693A"/>
<path d="M97.7457 18.5629L97.7291 36.1257L82.5486 27.3587L82.5653 9.79587L97.7457 18.5629Z" fill="#AD4929"/>
<path d="M97.6171 18.5629L112.798 9.79591L112.814 27.3587L97.6337 36.1257L97.6171 18.5629Z" fill="#CF5830"/>
<path d="M142.281 130.474L157.445 139.269L142.281 148.065L127.117 139.269L142.281 130.474Z" fill="#FA693A"/>
<path d="M142.266 148.036L142.25 165.599L127.069 156.832L127.086 139.269L142.266 148.036Z" fill="#AD4929"/>
<path d="M142.138 148.036L157.318 139.269L157.335 156.832L142.154 165.599L142.138 148.036Z" fill="#CF5830"/>
<path d="M127.29 139.105L142.453 147.901L127.29 156.697L112.126 147.901L127.29 139.105Z" fill="#FA693A"/>
<path d="M127.275 156.668L127.258 174.231L112.078 165.464L112.095 147.901L127.275 156.668Z" fill="#AD4929"/>
<path d="M127.146 156.668L142.327 147.901L142.343 165.464L127.163 174.231L127.146 156.668Z" fill="#CF5830"/>
<path d="M37.7935 121.842L52.9573 130.638L37.7935 139.434L22.6296 130.638L37.7935 121.842Z" fill="#FA693A"/>
<path d="M37.7789 139.405L37.7623 156.968L22.5818 148.201L22.5985 130.638L37.7789 139.405Z" fill="#AD4929"/>
<path d="M37.6503 139.405L52.8308 130.638L52.8474 148.201L37.6669 156.968L37.6503 139.405Z" fill="#CF5830"/>
<path d="M52.3303 130.474L67.4942 139.269L52.3303 148.065L37.1665 139.269L52.3303 130.474Z" fill="#FA693A"/>
<path d="M52.3158 148.036L52.2992 165.599L37.1187 156.832L37.1353 139.269L52.3158 148.036Z" fill="#AD4929"/>
<path d="M52.1871 148.036L67.3676 139.269L67.3842 156.832L52.2038 165.599L52.1871 148.036Z" fill="#CF5830"/>
<path d="M67.3228 139.105L82.4866 147.901L67.3228 156.697L52.1589 147.901L67.3228 139.105Z" fill="#FA693A"/>
<path d="M67.3082 156.668L67.2916 174.231L52.1111 165.464L52.1278 147.901L67.3082 156.668Z" fill="#AD4929"/>
<path d="M67.1796 156.668L82.36 147.901L82.3767 165.464L67.1962 174.231L67.1796 156.668Z" fill="#CF5830"/>
<path d="M82.3145 147.737L97.4783 156.532L82.3145 165.328L67.1506 156.532L82.3145 147.737Z" fill="#FA693A"/>
<path d="M82.2999 165.299L82.2833 182.862L67.1028 174.095L67.1195 156.532L82.2999 165.299Z" fill="#AD4929"/>
<path d="M82.1713 165.299L97.3517 156.532L97.3684 174.095L82.1879 182.862L82.1713 165.299Z" fill="#CF5830"/>
<path d="M112.298 147.737L127.461 156.532L112.298 165.328L97.1338 156.532L112.298 147.737Z" fill="#FA693A"/>
<path d="M112.283 165.299L112.266 182.862L97.086 174.095L97.1026 156.532L112.283 165.299Z" fill="#AD4929"/>
<path d="M112.154 165.299L127.335 156.532L127.352 174.095L112.171 182.862L112.154 165.299Z" fill="#CF5830"/>
<path d="M37.7935 104.579L52.9573 113.375L37.7935 122.171L22.6296 113.375L37.7935 104.579Z" fill="#FA693A"/>
<path d="M37.7789 122.142L37.7623 139.705L22.5818 130.938L22.5985 113.375L37.7789 122.142Z" fill="#AD4929"/>
<path d="M37.6503 122.142L52.8308 113.375L52.8474 130.938L37.6669 139.705L37.6503 122.142Z" fill="#CF5830"/>
<path d="M37.7935 87.316L52.9573 96.1119L37.7935 104.908L22.6296 96.1119L37.7935 87.316Z" fill="#FA693A"/>
<path d="M37.7789 104.879L37.7623 122.442L22.5818 113.675L22.5985 96.1119L37.7789 104.879Z" fill="#AD4929"/>
<path d="M37.6503 104.879L52.8308 96.1119L52.8474 113.675L37.6669 122.442L37.6503 104.879Z" fill="#CF5830"/>
<path d="M37.7935 70.053L52.9573 78.8488L37.7935 87.6447L22.6296 78.8488L37.7935 70.053Z" fill="#FA693A"/>
<path d="M37.7789 87.6158L37.7623 105.179L22.5818 96.4117L22.5985 78.8489L37.7789 87.6158Z" fill="#AD4929"/>
<path d="M37.6503 87.6159L52.8308 78.8489L52.8474 96.4117L37.6669 105.179L37.6503 87.6159Z" fill="#CF5830"/>
<path d="M37.7935 52.7896L52.9573 61.5854L37.7935 70.3812L22.6296 61.5854L37.7935 52.7896Z" fill="#FA693A"/>
<path d="M37.7789 70.3524L37.7623 87.9152L22.5818 79.1483L22.5985 61.5854L37.7789 70.3524Z" fill="#AD4929"/>
<path d="M37.6503 70.3524L52.8308 61.5855L52.8474 79.1483L37.6669 87.9153L37.6503 70.3524Z" fill="#CF5830"/>
<path d="M82.7688 9.63098L97.9327 18.4268L82.7688 27.2227L67.605 18.4268L82.7688 9.63098Z" fill="#FA693A"/>
<path d="M82.7543 27.1938L82.7377 44.7567L67.5572 35.9897L67.5738 18.4269L82.7543 27.1938Z" fill="#AD4929"/>
<path d="M82.6256 27.1939L97.8061 18.4269L97.8227 35.9897L82.6422 44.7567L82.6256 27.1939Z" fill="#CF5830"/>
<path d="M67.7769 18.2635L82.9407 27.0594L67.7769 35.8552L52.613 27.0594L67.7769 18.2635Z" fill="#FA693A"/>
<path d="M67.7623 35.8264L67.7457 53.3892L52.5652 44.6223L52.5819 27.0594L67.7623 35.8264Z" fill="#AD4929"/>
<path d="M67.6337 35.8264L82.8142 27.0595L82.8308 44.6223L67.6503 53.3893L67.6337 35.8264Z" fill="#CF5830"/>
<path d="M52.7847 26.8945L67.9485 35.6904L52.7847 44.4862L37.6208 35.6904L52.7847 26.8945Z" fill="#FA693A"/>
<path d="M52.7702 44.4574L52.7535 62.0202L37.5731 53.2532L37.5897 35.6904L52.7702 44.4574Z" fill="#AD4929"/>
<path d="M52.6415 44.4574L67.822 35.6904L67.8386 53.2533L52.6581 62.0202L52.6415 44.4574Z" fill="#CF5830"/>
<path d="M37.7935 35.526L52.9573 44.3218L37.7935 53.1177L22.6296 44.3218L37.7935 35.526Z" fill="#FA693A"/>
<path d="M37.7789 53.0889L37.7623 70.6517L22.5818 61.8847L22.5985 44.3219L37.7789 53.0889Z" fill="#AD4929"/>
<path d="M37.6503 53.0889L52.8308 44.3219L52.8474 61.8847L37.6669 70.6517L37.6503 53.0889Z" fill="#CF5830"/>
<path d="M112.752 9.63098L127.916 18.4268L112.752 27.2227L97.5881 18.4268L112.752 9.63098Z" fill="#FA693A"/>
<path d="M112.737 27.1938L112.721 44.7567L97.5403 35.9897L97.557 18.4269L112.737 27.1938Z" fill="#AD4929"/>
<path d="M112.609 27.1939L127.789 18.4269L127.806 35.9897L112.625 44.7567L112.609 27.1939Z" fill="#CF5830"/>
<path d="M127.744 18.2635L142.908 27.0594L127.744 35.8552L112.58 27.0594L127.744 18.2635Z" fill="#FA693A"/>
<path d="M127.729 35.8264L127.713 53.3892L112.532 44.6223L112.549 27.0594L127.729 35.8264Z" fill="#AD4929"/>
<path d="M127.6 35.8264L142.781 27.0595L142.798 44.6223L127.617 53.3893L127.6 35.8264Z" fill="#CF5830"/>
<path d="M142.736 26.8945L157.899 35.6904L142.736 44.4862L127.572 35.6904L142.736 26.8945Z" fill="#FA693A"/>
<path d="M142.721 44.4574L142.704 62.0202L127.524 53.2532L127.541 35.6904L142.721 44.4574Z" fill="#AD4929"/>
<path d="M142.592 44.4574L157.773 35.6904L157.79 53.2533L142.609 62.0202L142.592 44.4574Z" fill="#CF5830"/>
<path d="M157.727 35.526L172.891 44.3218L157.727 53.1177L142.563 44.3218L157.727 35.526Z" fill="#FA693A"/>
<path d="M157.713 53.0889L157.696 70.6517L142.515 61.8847L142.532 44.3219L157.713 53.0889Z" fill="#AD4929"/>
<path d="M157.584 53.0889L172.764 44.3219L172.781 61.8847L157.601 70.6517L157.584 53.0889Z" fill="#5A28AD"/>
<path d="M97.3057 156.369L112.47 165.165L97.3057 173.961L82.1418 165.165L97.3057 156.369Z" fill="#FA693A"/>
<path d="M97.2912 173.932L97.2745 191.495L82.0941 182.728L82.1107 165.165L97.2912 173.932Z" fill="#AD4929"/>
<path d="M97.1625 173.932L112.343 165.165L112.36 182.728L97.1791 191.495L97.1625 173.932Z" fill="#CF5830"/>
<path d="M157.273 104.579L172.437 113.375L157.273 122.171L142.109 113.375L157.273 104.579Z" fill="#FA693A"/>
<path d="M157.258 122.142L157.242 139.705L142.061 130.938L142.078 113.375L157.258 122.142Z" fill="#AD4929"/>
<path d="M157.13 122.142L172.31 113.375L172.327 130.938L157.146 139.705L157.13 122.142Z" fill="#5A28AD"/>
</svg>
